<?xml version="1.0" encoding="UTF-8"?>
<svg xmlns="http://www.w3.org/2000/svg" xmlns:xlink="http://www.w3.org/1999/xlink" width="32px" height="32px" viewBox="0 0 32 32" version="1.1">
<g id="surface1">
<path style=" stroke:none;fill-rule:nonzero;fill:rgb(79.607844%,79.607844%,20%);fill-opacity:1;" d="M 19.910156 0.492188 C 20.378906 0.867188 20.683594 1.386719 20.800781 1.980469 C 20.804688 2.160156 20.804688 2.335938 20.800781 2.515625 C 21.375 2.355469 21.914062 2.164062 22.4375 1.875 C 23.082031 1.539062 23.746094 1.460938 24.453125 1.664062 C 25.050781 1.933594 25.441406 2.371094 25.710938 2.960938 C 25.941406 3.613281 25.855469 4.171875 25.601562 4.800781 C 25.746094 4.773438 25.746094 4.773438 25.894531 4.746094 C 26.414062 4.691406 26.84375 4.839844 27.296875 5.085938 C 27.859375 5.546875 28.175781 6.0625 28.292969 6.792969 C 28.328125 7.503906 28.035156 8.085938 27.582031 8.609375 C 27.632812 8.617188 27.6875 8.621094 27.742188 8.628906 C 28.351562 8.789062 28.644531 9.230469 28.953125 9.753906 C 29.21875 10.421875 29.121094 11 28.875 11.65625 C 28.828125 11.757812 28.777344 11.863281 28.722656 11.960938 C 28.773438 11.984375 28.824219 12.003906 28.875 12.027344 C 29.546875 12.335938 29.914062 12.703125 30.191406 13.390625 C 30.421875 14.078125 30.242188 14.644531 30.019531 15.3125 C 30.101562 15.4375 30.101562 15.4375 30.222656 15.558594 C 30.691406 16.078125 30.882812 16.589844 30.855469 17.296875 C 30.734375 17.988281 30.371094 18.5625 29.867188 19.046875 C 29.816406 19.046875 29.765625 19.046875 29.714844 19.046875 C 29.695312 19.089844 29.675781 19.132812 29.65625 19.179688 C 29.550781 19.375 29.421875 19.523438 29.269531 19.691406 C 29.21875 19.75 29.164062 19.8125 29.105469 19.871094 C 28.933594 20.058594 28.75 20.238281 28.570312 20.417969 C 28.503906 20.503906 28.433594 20.585938 28.367188 20.671875 C 28.308594 20.738281 28.25 20.804688 28.191406 20.875 C 28.140625 20.875 28.089844 20.875 28.039062 20.875 C 27.988281 21 27.9375 21.128906 27.886719 21.257812 C 27.960938 21.261719 28.035156 21.265625 28.109375 21.269531 C 28.621094 21.347656 29.042969 21.601562 29.363281 22.003906 C 29.757812 22.59375 29.871094 23.136719 29.789062 23.847656 C 29.554688 24.742188 28.957031 25.203125 28.242188 25.730469 C 28.1875 25.769531 28.132812 25.8125 28.078125 25.851562 C 28.027344 25.886719 27.976562 25.925781 27.925781 25.960938 C 27.800781 26.050781 27.800781 26.050781 27.734375 26.210938 C 27.683594 26.210938 27.632812 26.210938 27.582031 26.210938 C 27.582031 26.261719 27.582031 26.308594 27.582031 26.363281 C 27.449219 26.460938 27.449219 26.460938 27.261719 26.582031 C 26.863281 26.851562 26.519531 27.160156 26.175781 27.492188 C 25.945312 27.710938 25.722656 27.878906 25.449219 28.039062 C 25.421875 28.089844 25.398438 28.136719 25.371094 28.191406 C 25.320312 28.191406 25.269531 28.191406 25.21875 28.191406 C 25.21875 28.242188 25.21875 28.292969 25.21875 28.34375 C 24.5625 28.964844 23.53125 29.003906 22.675781 29.039062 C 22.175781 29.015625 21.753906 28.84375 21.332031 28.570312 C 21.300781 28.53125 21.265625 28.492188 21.230469 28.453125 C 21 28.25 20.699219 28.300781 20.40625 28.300781 C 20.339844 28.300781 20.273438 28.300781 20.207031 28.300781 C 19.683594 28.316406 19.414062 28.425781 19.046875 28.800781 C 18.921875 28.871094 18.796875 28.9375 18.671875 29.007812 C 18.363281 29.199219 18.082031 29.429688 17.796875 29.652344 C 17.601562 29.789062 17.601562 29.789062 17.449219 29.789062 C 17.417969 29.859375 17.417969 29.859375 17.386719 29.929688 C 17.285156 30.109375 17.199219 30.1875 17.035156 30.308594 C 16.953125 30.367188 16.953125 30.367188 16.871094 30.429688 C 16.671875 30.5625 16.46875 30.6875 16.265625 30.8125 C 15.996094 30.984375 15.757812 31.15625 15.523438 31.371094 C 15.035156 31.8125 14.515625 31.921875 13.867188 31.921875 C 13.167969 31.847656 12.6875 31.492188 12.246094 30.972656 C 11.9375 30.527344 11.792969 29.949219 11.886719 29.410156 C 11.957031 29.183594 12.035156 28.96875 12.125 28.75 C 12.199219 28.578125 12.199219 28.578125 12.191406 28.417969 C 11.925781 28.507812 11.917969 28.542969 11.789062 28.777344 C 11.410156 29.40625 10.914062 29.683594 10.210938 29.867188 C 9.796875 29.910156 9.460938 29.824219 9.066406 29.714844 C 9.066406 29.765625 9.066406 29.816406 9.066406 29.867188 C 9.015625 29.867188 8.964844 29.867188 8.914062 29.867188 C 8.914062 29.917969 8.914062 29.96875 8.914062 30.019531 C 8.757812 30.132812 8.757812 30.132812 8.550781 30.253906 C 8.453125 30.3125 8.453125 30.3125 8.347656 30.375 C 7.863281 30.625 7.265625 30.640625 6.742188 30.503906 C 6.082031 30.234375 5.644531 29.800781 5.328125 29.167969 C 5.128906 28.558594 5.195312 28.039062 5.34375 27.421875 C 5.359375 27.351562 5.375 27.28125 5.390625 27.207031 C 5.484375 26.789062 5.613281 26.46875 5.855469 26.117188 C 5.976562 25.929688 6.035156 25.734375 6.09375 25.523438 C 6.035156 25.496094 5.976562 25.472656 5.914062 25.445312 C 5.265625 25.144531 4.804688 24.828125 4.5 24.167969 C 4.417969 23.921875 4.417969 23.921875 4.417969 23.695312 C 4.355469 23.679688 4.289062 23.667969 4.222656 23.652344 C 3.878906 23.507812 3.65625 23.300781 3.429688 23.007812 C 3.398438 22.929688 3.363281 22.851562 3.332031 22.769531 C 3.21875 22.527344 3.21875 22.527344 2.953125 22.472656 C 2.855469 22.460938 2.757812 22.449219 2.65625 22.4375 C 1.875 22.316406 1.394531 21.964844 0.890625 21.367188 C 0.582031 20.917969 0.445312 20.347656 0.535156 19.808594 C 0.617188 19.523438 0.726562 19.25 0.839844 18.972656 C 0.871094 18.890625 0.898438 18.8125 0.933594 18.726562 C 1.09375 18.324219 1.25 18.015625 1.523438 17.675781 C 1.589844 17.554688 1.652344 17.433594 1.710938 17.308594 C 1.941406 16.835938 2.207031 16.40625 2.523438 15.984375 C 2.773438 15.667969 2.773438 15.667969 2.972656 15.3125 C 2.914062 15.167969 2.914062 15.167969 2.820312 15.007812 C 2.472656 14.390625 2.253906 13.851562 2.429688 13.136719 C 2.613281 12.589844 2.941406 11.765625 3.351562 11.351562 C 3.292969 11.339844 3.234375 11.328125 3.175781 11.320312 C 2.417969 11.152344 1.835938 10.878906 1.386719 10.222656 C 1.082031 9.675781 1 9.144531 1.144531 8.535156 C 1.410156 7.71875 1.894531 7.316406 2.589844 6.855469 C 2.644531 6.820312 2.703125 6.78125 2.761719 6.742188 C 3.007812 6.578125 3.253906 6.414062 3.5 6.253906 C 4.003906 5.917969 4.003906 5.917969 4.492188 5.5625 C 4.824219 5.304688 5.183594 5.09375 5.542969 4.878906 C 5.765625 4.738281 5.980469 4.59375 6.195312 4.4375 C 6.460938 4.25 6.722656 4.089844 7.015625 3.953125 C 7.160156 3.886719 7.160156 3.886719 7.296875 3.808594 C 7.925781 3.445312 8.777344 3.269531 9.496094 3.378906 C 9.992188 3.515625 10.4375 3.769531 10.820312 4.113281 C 10.882812 4.054688 10.882812 4.054688 10.945312 3.996094 C 11.003906 3.949219 11.058594 3.898438 11.113281 3.847656 C 11.167969 3.796875 11.222656 3.75 11.28125 3.699219 C 11.429688 3.582031 11.429688 3.582031 11.582031 3.582031 C 11.601562 3.535156 11.621094 3.488281 11.640625 3.441406 C 11.742188 3.257812 11.832031 3.183594 12.003906 3.0625 C 12.085938 3.003906 12.085938 3.003906 12.171875 2.941406 C 12.226562 2.902344 12.285156 2.859375 12.34375 2.820312 C 12.453125 2.734375 12.566406 2.648438 12.675781 2.5625 C 12.734375 2.515625 12.792969 2.472656 12.851562 2.425781 C 12.96875 2.332031 13.085938 2.234375 13.199219 2.136719 C 13.921875 1.503906 14.808594 1.078125 15.777344 1.050781 C 16.105469 1.074219 16.386719 1.160156 16.6875 1.296875 C 16.699219 1.242188 16.710938 1.191406 16.722656 1.136719 C 16.980469 0.632812 17.457031 0.332031 17.980469 0.152344 C 18.671875 -0.0390625 19.3125 0.113281 19.910156 0.492188 Z M 19.910156 0.492188 "/>
<path style=" stroke:none;fill-rule:nonzero;fill:rgb(20%,60.000002%,0%);fill-opacity:1;" d="M 19.910156 0.492188 C 20.378906 0.871094 20.683594 1.386719 20.800781 1.980469 C 20.8125 2.257812 20.8125 2.257812 20.800781 2.515625 C 20.601562 2.710938 20.484375 2.699219 20.210938 2.734375 C 19.824219 2.792969 19.582031 2.871094 19.277344 3.125 C 19.203125 3.183594 19.132812 3.242188 19.058594 3.304688 C 19.019531 3.335938 18.980469 3.371094 18.945312 3.402344 C 18.820312 3.503906 18.820312 3.503906 18.671875 3.605469 C 18.304688 3.859375 18.085938 4.113281 17.851562 4.492188 C 17.753906 4.648438 17.753906 4.648438 17.585938 4.808594 C 17.429688 4.96875 17.367188 5.125 17.289062 5.332031 C 17.207031 5.515625 17.101562 5.671875 16.992188 5.839844 C 16.667969 6.367188 16.5625 6.933594 16.5 7.542969 C 16.492188 7.617188 16.492188 7.617188 16.480469 7.695312 C 16.46875 7.839844 16.457031 7.984375 16.445312 8.128906 C 16.367188 8.445312 16.242188 8.546875 16 8.761719 C 15.871094 8.910156 15.742188 9.0625 15.613281 9.214844 C 15.550781 9.289062 15.488281 9.367188 15.421875 9.445312 C 15.246094 9.667969 15.089844 9.898438 14.933594 10.132812 C 14.832031 10.261719 14.730469 10.390625 14.628906 10.515625 C 14.570312 10.582031 14.515625 10.652344 14.457031 10.722656 C 14.339844 10.867188 14.222656 11.011719 14.105469 11.152344 C 14.003906 11.277344 13.910156 11.402344 13.816406 11.53125 C 13.78125 11.574219 13.75 11.613281 13.714844 11.65625 C 13.664062 11.65625 13.613281 11.65625 13.5625 11.65625 C 13.542969 11.699219 13.523438 11.742188 13.503906 11.785156 C 13.390625 11.996094 13.253906 12.148438 13.089844 12.324219 C 13 12.425781 13 12.425781 12.902344 12.527344 C 12.84375 12.59375 12.785156 12.65625 12.722656 12.722656 C 12.15625 13.355469 11.628906 14.019531 11.125 14.703125 C 10.945312 14.4375 10.855469 14.160156 10.757812 13.859375 C 10.738281 13.800781 10.714844 13.738281 10.695312 13.675781 C 10.652344 13.550781 10.609375 13.421875 10.570312 13.296875 C 10.503906 13.101562 10.441406 12.90625 10.375 12.710938 C 10.332031 12.585938 10.292969 12.464844 10.25 12.339844 C 10.230469 12.28125 10.210938 12.222656 10.191406 12.164062 C 10.058594 11.75 10.058594 11.75 10.058594 11.582031 C 8.875 11.582031 7.695312 11.582031 6.476562 11.582031 C 6.984375 12.894531 7.492188 14.207031 8.007812 15.515625 C 8.035156 15.578125 8.058594 15.640625 8.085938 15.707031 C 8.351562 16.378906 8.351562 16.378906 8.621094 17.050781 C 8.707031 17.28125 8.71875 17.433594 8.6875 17.675781 C 8.574219 17.847656 8.46875 17.988281 8.332031 18.136719 C 8.269531 18.214844 8.203125 18.289062 8.136719 18.371094 C 7.929688 18.59375 7.703125 18.777344 7.464844 18.972656 C 7.414062 19.023438 7.363281 19.074219 7.3125 19.125 C 7.070312 19.367188 6.800781 19.574219 6.535156 19.785156 C 6.195312 20.070312 5.902344 20.378906 5.628906 20.730469 C 5.554688 20.824219 5.554688 20.824219 5.476562 20.921875 C 5.429688 20.980469 5.382812 21.042969 5.332031 21.105469 C 5.292969 21.152344 5.253906 21.199219 5.210938 21.246094 C 5.066406 21.46875 5.015625 21.691406 4.949219 21.949219 C 4.816406 22.453125 4.816406 22.453125 4.648438 22.703125 C 4.613281 22.949219 4.613281 22.949219 4.601562 23.214844 C 4.59375 23.304688 4.589844 23.394531 4.582031 23.488281 C 4.578125 23.554688 4.574219 23.625 4.570312 23.695312 C 4.082031 23.640625 3.828125 23.449219 3.503906 23.085938 C 3.460938 22.992188 3.421875 22.898438 3.386719 22.800781 C 3.324219 22.660156 3.324219 22.660156 3.199219 22.550781 C 2.96875 22.488281 2.734375 22.445312 2.496094 22.410156 C 1.792969 22.292969 1.34375 21.902344 0.890625 21.367188 C 0.582031 20.917969 0.445312 20.347656 0.535156 19.808594 C 0.617188 19.523438 0.726562 19.25 0.839844 18.972656 C 0.871094 18.890625 0.898438 18.8125 0.933594 18.726562 C 1.09375 18.324219 1.25 18.015625 1.523438 17.675781 C 1.589844 17.554688 1.652344 17.433594 1.710938 17.308594 C 1.941406 16.835938 2.207031 16.40625 2.523438 15.984375 C 2.773438 15.667969 2.773438 15.667969 2.972656 15.3125 C 2.914062 15.167969 2.914062 15.167969 2.820312 15.007812 C 2.472656 14.390625 2.253906 13.851562 2.429688 13.136719 C 2.613281 12.589844 2.941406 11.765625 3.351562 11.351562 C 3.292969 11.339844 3.234375 11.328125 3.175781 11.320312 C 2.417969 11.152344 1.835938 10.878906 1.386719 10.222656 C 1.082031 9.675781 1 9.144531 1.144531 8.535156 C 1.410156 7.71875 1.894531 7.316406 2.589844 6.855469 C 2.644531 6.820312 2.703125 6.78125 2.761719 6.742188 C 3.007812 6.578125 3.253906 6.414062 3.5 6.253906 C 4.003906 5.917969 4.003906 5.917969 4.492188 5.5625 C 4.824219 5.304688 5.183594 5.09375 5.542969 4.878906 C 5.765625 4.738281 5.980469 4.59375 6.195312 4.4375 C 6.460938 4.25 6.722656 4.089844 7.015625 3.953125 C 7.160156 3.886719 7.160156 3.886719 7.296875 3.808594 C 7.925781 3.445312 8.777344 3.269531 9.496094 3.378906 C 9.992188 3.515625 10.4375 3.769531 10.820312 4.113281 C 10.882812 4.054688 10.882812 4.054688 10.945312 3.996094 C 11.003906 3.949219 11.058594 3.898438 11.113281 3.847656 C 11.167969 3.796875 11.222656 3.75 11.28125 3.699219 C 11.429688 3.582031 11.429688 3.582031 11.582031 3.582031 C 11.601562 3.535156 11.621094 3.488281 11.640625 3.441406 C 11.742188 3.257812 11.832031 3.183594 12.003906 3.0625 C 12.085938 3.003906 12.085938 3.003906 12.171875 2.941406 C 12.226562 2.902344 12.285156 2.859375 12.34375 2.820312 C 12.453125 2.734375 12.566406 2.648438 12.675781 2.5625 C 12.734375 2.515625 12.792969 2.472656 12.851562 2.425781 C 12.96875 2.332031 13.085938 2.234375 13.199219 2.136719 C 13.921875 1.503906 14.808594 1.078125 15.777344 1.050781 C 16.105469 1.074219 16.386719 1.160156 16.6875 1.296875 C 16.699219 1.242188 16.710938 1.191406 16.722656 1.136719 C 16.980469 0.632812 17.457031 0.332031 17.980469 0.152344 C 18.671875 -0.0390625 19.3125 0.113281 19.910156 0.492188 Z M 19.910156 0.492188 "/>
<path style=" stroke:none;fill-rule:nonzero;fill:rgb(0%,20%,99.607843%);fill-opacity:1;" d="M 28.3125 8.929688 C 28.792969 9.496094 29.144531 9.941406 29.125 10.730469 C 29.074219 11.164062 28.925781 11.578125 28.722656 11.960938 C 28.773438 11.984375 28.824219 12.003906 28.875 12.027344 C 29.546875 12.335938 29.914062 12.703125 30.191406 13.390625 C 30.421875 14.078125 30.242188 14.644531 30.019531 15.3125 C 30.101562 15.4375 30.101562 15.4375 30.222656 15.558594 C 30.691406 16.078125 30.882812 16.589844 30.855469 17.296875 C 30.734375 17.988281 30.371094 18.5625 29.867188 19.046875 C 29.816406 19.046875 29.765625 19.046875 29.714844 19.046875 C 29.695312 19.089844 29.675781 19.132812 29.65625 19.179688 C 29.550781 19.375 29.421875 19.523438 29.269531 19.691406 C 29.191406 19.78125 29.191406 19.78125 29.105469 19.871094 C 28.933594 20.058594 28.75 20.238281 28.570312 20.417969 C 28.503906 20.503906 28.433594 20.585938 28.367188 20.671875 C 28.308594 20.738281 28.25 20.804688 28.191406 20.875 C 28.140625 20.875 28.089844 20.875 28.039062 20.875 C 27.988281 21 27.9375 21.128906 27.886719 21.257812 C 27.960938 21.261719 28.035156 21.265625 28.109375 21.269531 C 28.621094 21.347656 29.042969 21.601562 29.363281 22.003906 C 29.757812 22.59375 29.871094 23.136719 29.789062 23.847656 C 29.554688 24.742188 28.957031 25.203125 28.242188 25.730469 C 28.1875 25.769531 28.132812 25.8125 28.078125 25.851562 C 28.027344 25.886719 27.976562 25.925781 27.925781 25.960938 C 27.800781 26.050781 27.800781 26.050781 27.734375 26.210938 C 27.683594 26.210938 27.632812 26.210938 27.582031 26.210938 C 27.582031 26.261719 27.582031 26.308594 27.582031 26.363281 C 27.449219 26.460938 27.449219 26.460938 27.261719 26.582031 C 26.863281 26.851562 26.519531 27.160156 26.175781 27.492188 C 25.945312 27.710938 25.722656 27.878906 25.449219 28.039062 C 25.421875 28.089844 25.398438 28.136719 25.371094 28.191406 C 25.320312 28.191406 25.269531 28.191406 25.21875 28.191406 C 25.21875 28.242188 25.21875 28.292969 25.21875 28.34375 C 24.5625 28.964844 23.53125 29.003906 22.675781 29.039062 C 22.175781 29.015625 21.753906 28.84375 21.332031 28.570312 C 21.300781 28.53125 21.265625 28.492188 21.230469 28.453125 C 21 28.25 20.699219 28.300781 20.40625 28.300781 C 20.339844 28.300781 20.273438 28.300781 20.207031 28.300781 C 19.683594 28.316406 19.414062 28.425781 19.046875 28.800781 C 18.921875 28.871094 18.796875 28.9375 18.671875 29.007812 C 18.363281 29.199219 18.082031 29.429688 17.796875 29.652344 C 17.601562 29.789062 17.601562 29.789062 17.449219 29.789062 C 17.429688 29.835938 17.40625 29.882812 17.386719 29.929688 C 17.285156 30.109375 17.199219 30.1875 17.035156 30.308594 C 16.980469 30.347656 16.925781 30.386719 16.871094 30.429688 C 16.671875 30.5625 16.46875 30.6875 16.265625 30.8125 C 15.996094 30.984375 15.757812 31.15625 15.523438 31.371094 C 15.035156 31.8125 14.515625 31.921875 13.867188 31.921875 C 13.167969 31.847656 12.6875 31.492188 12.246094 30.972656 C 11.933594 30.523438 11.800781 29.953125 11.886719 29.410156 C 12.035156 28.726562 12.308594 28.421875 12.875 28.039062 C 12.980469 27.957031 13.082031 27.871094 13.179688 27.785156 C 13.222656 27.75 13.265625 27.714844 13.308594 27.675781 C 13.492188 27.503906 13.484375 27.414062 13.492188 27.15625 C 13.496094 27.101562 13.496094 27.046875 13.496094 26.988281 C 13.507812 26.363281 13.570312 25.921875 14.019531 25.449219 C 14.058594 25.402344 14.097656 25.359375 14.140625 25.316406 C 14.246094 25.21875 14.246094 25.21875 14.398438 25.21875 C 14.425781 25.15625 14.425781 25.15625 14.453125 25.09375 C 14.796875 24.46875 15.386719 24.042969 15.941406 23.613281 C 16.316406 23.316406 16.535156 23.039062 16.71875 22.59375 C 16.832031 22.332031 16.964844 22.136719 17.136719 21.910156 C 17.367188 21.574219 17.324219 21.144531 17.34375 20.75 C 17.371094 20.511719 17.414062 20.394531 17.523438 20.191406 C 17.542969 20.035156 17.542969 20.035156 17.546875 19.871094 C 17.617188 19.144531 18.105469 18.640625 18.589844 18.132812 C 18.75 18.332031 18.859375 18.511719 18.953125 18.746094 C 19.46875 19.929688 20.316406 20.730469 21.484375 21.257812 C 23.1875 21.925781 24.949219 21.882812 26.621094 21.164062 C 26.972656 21.003906 27.273438 20.804688 27.582031 20.570312 C 27.484375 20.289062 27.371094 20.105469 27.167969 19.890625 C 26.96875 19.675781 26.78125 19.457031 26.601562 19.222656 C 26.566406 19.175781 26.53125 19.125 26.492188 19.074219 C 26.417969 18.980469 26.347656 18.882812 26.273438 18.78125 C 26.164062 18.628906 26.164062 18.628906 25.980469 18.4375 C 25.679688 18.40625 25.679688 18.40625 25.507812 18.578125 C 24.929688 19.027344 24.253906 19.03125 23.542969 18.972656 C 23 18.878906 22.609375 18.53125 22.246094 18.132812 C 21.808594 17.503906 21.699219 16.671875 21.789062 15.921875 C 22.015625 15.128906 22.394531 14.585938 23.097656 14.167969 C 23.585938 13.914062 24.230469 13.945312 24.753906 14.074219 C 25.160156 14.230469 25.480469 14.449219 25.828125 14.703125 C 26.09375 14.398438 26.09375 14.398438 26.355469 14.089844 C 26.566406 13.84375 26.777344 13.597656 26.992188 13.355469 C 27.03125 13.308594 27.070312 13.265625 27.109375 13.21875 C 27.183594 13.132812 27.261719 13.050781 27.335938 12.964844 C 27.449219 12.839844 27.449219 12.839844 27.582031 12.648438 C 27.4375 12.214844 26.90625 12.011719 26.515625 11.808594 C 25.648438 11.421875 24.78125 11.339844 23.847656 11.277344 C 23.945312 10.972656 24.035156 10.765625 24.230469 10.515625 C 24.277344 10.417969 24.320312 10.320312 24.367188 10.222656 C 24.777344 9.40625 25.484375 9.011719 26.285156 8.609375 C 27.71875 8.433594 27.71875 8.433594 28.3125 8.929688 Z M 28.3125 8.929688 "/>
<path style=" stroke:none;fill-rule:nonzero;fill:rgb(99.607843%,99.607843%,99.215686%);fill-opacity:1;" d="M 6.476562 11.582031 C 7.65625 11.582031 8.839844 11.582031 10.058594 11.582031 C 10.773438 13.652344 11.457031 15.734375 12.113281 17.828125 C 12.1875 17.636719 12.257812 17.449219 12.332031 17.257812 C 12.351562 17.203125 12.371094 17.152344 12.394531 17.097656 C 12.53125 16.734375 12.648438 16.367188 12.753906 15.996094 C 12.902344 15.46875 13.074219 14.953125 13.257812 14.4375 C 13.476562 13.816406 13.679688 13.191406 13.859375 12.554688 C 13.953125 12.226562 14.0625 11.90625 14.171875 11.582031 C 15.328125 11.582031 16.484375 11.582031 17.675781 11.582031 C 17.621094 11.847656 17.574219 12.050781 17.476562 12.292969 C 17.453125 12.359375 17.429688 12.421875 17.402344 12.488281 C 17.375 12.558594 17.347656 12.628906 17.316406 12.699219 C 17.289062 12.773438 17.261719 12.847656 17.230469 12.921875 C 17.132812 13.171875 17.035156 13.414062 16.9375 13.660156 C 16.871094 13.835938 16.800781 14.007812 16.734375 14.179688 C 16.589844 14.546875 16.445312 14.910156 16.300781 15.277344 C 15.960938 16.136719 15.625 17 15.285156 17.859375 C 15.179688 18.132812 15.070312 18.402344 14.964844 18.671875 C 14.933594 18.757812 14.898438 18.84375 14.863281 18.933594 C 14.800781 19.09375 14.738281 19.25 14.675781 19.40625 C 14.40625 20.101562 14.136719 20.792969 13.867188 21.484375 C 12.683594 21.484375 11.503906 21.484375 10.285156 21.484375 C 10.191406 21.242188 10.097656 21 9.996094 20.75 C 9.386719 19.191406 8.777344 17.632812 8.160156 16.078125 C 8.082031 15.878906 8 15.675781 7.921875 15.476562 C 7.695312 14.902344 7.46875 14.328125 7.238281 13.753906 C 7.144531 13.515625 7.050781 13.28125 6.957031 13.042969 C 6.914062 12.933594 6.871094 12.824219 6.824219 12.714844 C 6.765625 12.566406 6.707031 12.414062 6.648438 12.265625 C 6.613281 12.183594 6.582031 12.101562 6.546875 12.015625 C 6.476562 11.808594 6.476562 11.808594 6.476562 11.582031 Z M 6.476562 11.582031 "/>
<path style=" stroke:none;fill-rule:nonzero;fill:rgb(99.215686%,99.215686%,99.607843%);fill-opacity:1;" d="M 23.851562 11.253906 C 23.976562 11.253906 23.976562 11.253906 24.105469 11.25 C 25.328125 11.257812 26.539062 11.554688 27.503906 12.34375 C 27.605469 12.511719 27.605469 12.511719 27.65625 12.648438 C 27.59375 12.71875 27.535156 12.789062 27.46875 12.863281 C 26.917969 13.5 26.371094 14.136719 25.828125 14.78125 C 25.746094 14.726562 25.746094 14.726562 25.660156 14.667969 C 25.585938 14.621094 25.515625 14.574219 25.4375 14.523438 C 25.367188 14.476562 25.292969 14.429688 25.21875 14.378906 C 24.652344 14.054688 24.105469 14.035156 23.464844 14.09375 C 23.234375 14.164062 23.054688 14.257812 22.855469 14.398438 C 22.777344 14.453125 22.695312 14.511719 22.613281 14.566406 C 22.125 15.054688 21.863281 15.667969 21.84375 16.351562 C 21.859375 17.109375 21.992188 17.820312 22.550781 18.363281 C 23.21875 18.890625 23.761719 18.960938 24.609375 18.894531 C 25.082031 18.785156 25.421875 18.648438 25.753906 18.285156 C 26.042969 18.402344 26.183594 18.570312 26.375 18.8125 C 26.4375 18.890625 26.496094 18.964844 26.554688 19.039062 C 26.648438 19.15625 26.648438 19.15625 26.742188 19.277344 C 26.867188 19.425781 26.988281 19.578125 27.113281 19.730469 C 27.21875 19.855469 27.324219 19.984375 27.429688 20.113281 C 27.496094 20.195312 27.496094 20.195312 27.566406 20.277344 C 27.597656 20.324219 27.625 20.371094 27.65625 20.417969 C 27.519531 20.828125 27.105469 20.984375 26.742188 21.179688 C 25.203125 21.925781 23.476562 22.023438 21.851562 21.480469 C 20.472656 20.945312 19.40625 20.011719 18.789062 18.664062 C 18.277344 17.3125 18.214844 15.671875 18.804688 14.332031 C 19.449219 13 20.546875 12 21.941406 11.503906 C 22.585938 11.300781 23.179688 11.242188 23.851562 11.253906 Z M 23.851562 11.253906 "/>
<path style=" stroke:none;fill-rule:nonzero;fill:rgb(98.823529%,99.215686%,98.823529%);fill-opacity:1;" d="M 4.453125 17.90625 C 4.9375 18.183594 5.316406 18.585938 5.484375 19.125 C 5.554688 19.835938 5.5 20.425781 5.0625 21.003906 C 4.625 21.46875 4.140625 21.660156 3.503906 21.6875 C 2.835938 21.65625 2.367188 21.449219 1.910156 20.960938 C 1.574219 20.539062 1.402344 20.148438 1.425781 19.605469 C 1.5 18.992188 1.742188 18.539062 2.210938 18.132812 C 2.867188 17.648438 3.703125 17.570312 4.453125 17.90625 Z M 4.453125 17.90625 "/>
<path style=" stroke:none;fill-rule:nonzero;fill:rgb(68.627453%,76.47059%,18.039216%);fill-opacity:1;" d="M 8.6875 17.449219 C 8.734375 17.546875 8.785156 17.648438 8.839844 17.753906 C 8.613281 17.980469 8.386719 18.203125 8.152344 18.4375 C 8.101562 18.414062 8.050781 18.386719 8 18.363281 C 8.042969 18.316406 8.085938 18.269531 8.128906 18.21875 C 8.214844 18.128906 8.214844 18.128906 8.300781 18.035156 C 8.382812 17.941406 8.382812 17.941406 8.46875 17.847656 C 8.625 17.679688 8.625 17.679688 8.6875 17.449219 Z M 8.6875 17.449219 "/>
<path style=" stroke:none;fill-rule:nonzero;fill:rgb(17.647059%,33.333334%,81.960785%);fill-opacity:1;" d="M 14.933594 24.457031 C 14.984375 24.457031 15.035156 24.457031 15.085938 24.457031 C 14.96875 24.746094 14.777344 24.929688 14.550781 25.144531 C 14.503906 25.117188 14.453125 25.09375 14.398438 25.066406 C 14.484375 24.964844 14.570312 24.863281 14.65625 24.761719 C 14.730469 24.675781 14.730469 24.675781 14.800781 24.589844 C 14.84375 24.546875 14.886719 24.503906 14.933594 24.457031 Z M 14.933594 24.457031 "/>
<path style=" stroke:none;fill-rule:nonzero;fill:rgb(63.529414%,74.509805%,14.509805%);fill-opacity:1;" d="M 6.171875 19.960938 C 6.222656 19.960938 6.273438 19.960938 6.324219 19.960938 C 6.203125 20.289062 5.980469 20.4375 5.714844 20.648438 C 5.832031 20.386719 5.980469 20.175781 6.171875 19.960938 Z M 6.171875 19.960938 "/>
</g>
</svg>
