<svg xmlns="http://www.w3.org/2000/svg" width="178" height="134.827" viewBox="0 0 178 134.827"><g id="Group_179" data-name="Group 179" transform="translate(0 0)"><path id="Path_1" data-name="Path 1" d="M169.183-107.6a3.475,3.475,0,0,1-1.063-2.555c-.024-1.317,1.661-6.059-.883-6.594-4.426-.379-6.348,4.89-11.837,5.828-.362-2.784.748-7.935-2.591-8.472-2.969,7.179-6.008,10.736-8.173,10.942-1.1-.229-1.757-1.98-2.159-6.507-.464-11.248-13.294.377-16.988,3.7-5.629,6.241-7.78-9.26.867-13.219,4.489-1.247.8,5,2.465,6.207.906-2.525,2.441-5.443,1.031-7.06-1.047-.97-3.354-1.9-5.078-.788-5.576,2.073-8.971,14.411-4.521,19.8,4.646,6.776,8.568-6.452,13.324-8.581-8.017,9.062,1.151,17.566,7.442,2.752.363,7.959,4.766,6.618,8.246,3.179,1.307,1.08,3.356,4.126,5.639,2.934.354-.543.283-2.058.638-2.594,2.433-.805,3.978-2.335,5.52-3.345-5.945,7.761.725,13.9,5.1,4,5.268,8.732,10.733-2.926,14.774-2.468a4.184,4.184,0,0,0,.174-2.2c-4.993-1.2-7.262,8.448-11.94,5.04m-34.006.387c-.395.324-1.748-.032-1.843-.474-.646-3.147,3.678-6.886,6.064-8.33a13.287,13.287,0,0,1-4.221,8.8m18-3.408c-1.694,2.438-4.057-1.988.071-3.155.087.829-.055,2.233-.071,3.155m8.4,4.772c-2.425-1.514,3.182-7.982,4.017-7.872.693,2.721-1.93,6.6-4.017,7.872" transform="translate(-63.124 236.428)" fill="#2c2c2c" fill-rule="evenodd"></path><path id="Path_2" data-name="Path 2" d="M131.663-109.911c-1.519,1.617-3.261,4.039-6.773,5.19-3.962,1.222-1.371-5.773-2.1-7.6-1.353-2.667-4.669-1.4-7.063-1.23a2.315,2.315,0,0,0-2.868-1.878c2.032,6.956-6.773,17.3-6.354,6.634-.606-.45-.559-.308-.977-.9,1.489.079,2.253.671,2.394-1.317-8.513-4.74-14.663,5.127-21.019,7.959-.085-7.493,4.742-19.554,7.1-28.318H91.317c-3.119,9.561-6.984,22.75-7.993,30.945,1.93,5.773,11.152-6.9,14.247-6.839-4.371,10.026,2.3,10.616,6.725,2.918a4.136,4.136,0,0,0,4.245,2.3c6.1-.418,5.04-10.381,11.27-9.735.464,2.9-.2,9.269,2.757,10.184,4.15.079,8.371-4.243,10.608-6.972a1.614,1.614,0,0,0-1.513-1.342m-32.171,7.186c-1.284-1.143,2.009-5.254,3.8-6.373.126.039.142.19.283.229-.723,2.508-2.621,7.288-4.087,6.144" transform="translate(-83.324 233.683)" fill="#2c2c2c" fill-rule="evenodd"></path><path id="Path_3" data-name="Path 3" d="M216.222-103.784c-4.071-.466-7.529-2.6-9.056-7.944-.883-10.166-11.971.087-15.4,3.36-2.67,2.4-3.638,1.058-3.828.734-.772-1.593,1.189-3.068,1.922-4.456,1.448-1.814,6.048-15.437.677-13.2-3.229,2.966-4.969,8.385-4.946,14.316-.764,3.21-5.364,6.713-6.253,5.333-.9-1.8,3.929-3.708,3.607-8.117-1.307-6.185-7.276,1.664-7.089,5.009-.2-3.558-1.63-6.027-4.685-7,3.725-4.189,4.213-13.875-4-12.085-1.039-.914-3.622-.513-2.811,1.293-6.836,5.143-2.22,17.449-.725,20.509-1.693.253-1.835,4.069.316,3.218,3.236,3.581,10.111,2.626,11.513-1.83,2.528,4.126,8.254.592,10.443-2.012,4.15,6.8,8.7-4.14,13.184-5.009-7.348,8.464,1.2,15.753,6.757,2.485,1.574,5.6,5.969,7.643,10.664,7.911Zm-25.406-16.809c-.4,2.879-1.4,5.978-2.977,7.809.749-2.681.875-6.468,2.977-7.809m-26.7,9.947c-.235-.7-.5-1.506-.731-2.367a3.989,3.989,0,0,1,.818.008c-.016.813-.047,1.609-.079,2.367m.166-5.183a5.552,5.552,0,0,1-1.489.024c-.393-2.422-.1-5.688,1.631-7.518-.016,1.98-.071,4.726-.142,7.486m5.277-9.9c2.669.93,1.221,9.1-2.309,9.481-.016-4.2-.291-7.777-.3-8.936a6.846,6.846,0,0,1,2.607-.537m-3.041,20.067a52.59,52.59,0,0,0,.7-7.66c9.182-1.538,6.962,12.093-.7,7.66m11.333-2.636c-.3-1.27,1.442-5.1,2.741-4.811,1.055.632-2.032,3.376-2.741,4.811m22.658,3.55c-.363.3-1.592-.016-1.679-.434-.583-2.847,3.34-6.231,5.5-7.556a12.068,12.068,0,0,1-3.826,7.99" transform="translate(-38.507 235.453)" fill="#2c2c2c" fill-rule="evenodd"></path><path id="Path_4" data-name="Path 4" d="M158.7-143.277a118.778,118.778,0,0,0,8.734,26.646l.411.845-.93.142c-1.638.243-3.008,1.7-3.678,3.872-.749,2.438-.393,5.04.851,6.193.85.788,2.062.875,3.607.259l.441-.174.324.355c5.355,5.925,14.363,8.448,23.5,6.579,8.292-1.7,14.8-6.657,16.978-12.96a36.377,36.377,0,0,0,1.379-14.537c-1.669-14-6.749-21.629-16.459-24.721l-1.009-.324.7-.788a38.631,38.631,0,0,0,8.473-18.04c1.363-7.155.646-13.615-2.023-18.182-3.646-6.248-10.648-8.448-20.264-6.359l-.338.071-.261-.227a7.063,7.063,0,0,0-4.221-1.522,6.552,6.552,0,0,0-4.174,1.033c-1.3.97-1.536,2.476-.685,4.361l.229.505-.442.332a30.838,30.838,0,0,0-11.229,16.934l.069-.251a30.708,30.708,0,0,0-11.158-16.675l-.442-.332.229-.505c.85-1.885.614-3.392-.685-4.361a6.548,6.548,0,0,0-4.174-1.034,7.024,7.024,0,0,0-4.221,1.524l-.261.227-.34-.071c-9.607-2.089-16.617.111-20.263,6.359-2.662,4.567-3.378,11.027-2.024,18.182a38.648,38.648,0,0,0,8.475,18.04l.7.788-1.009.324c-9.71,3.092-14.79,10.711-16.459,24.721a36.367,36.367,0,0,0,1.379,14.537c2.173,6.294,8.679,11.264,16.978,12.96,9.135,1.87,18.137-.654,23.5-6.578l.324-.355.441.174c1.544.616,2.757.529,3.607-.261,1.236-1.151,1.6-3.754.851-6.192-.67-2.176-2.04-3.621-3.678-3.872l-.93-.142.411-.845a119.185,119.185,0,0,0,8.734-26.646m-11.428,21.242-.5-10.837c-.118-2.516-.245-5.514-.3-8.6l-.04-1.949,1.977-.141a16.82,16.82,0,0,1,3.292-.008l2.394.267-.646,2.328c-.756,2.721-1.637,5.554-2.694,8.669Zm3.938-27.386a20.306,20.306,0,0,1-3.411-.261l-1.638-.3-.04-1.672c-.316-12.352-.472-20.974-.512-27.118l-.032-5.191,3.567,3.771c7.01,7.39,7.851,20.2,6.443,28.916l-.245,1.514-1.521.19a21.088,21.088,0,0,1-2.6.142m15.475,17.141c-1.056-3.116-1.938-5.948-2.694-8.669l-.646-2.328,2.394-.267a16.814,16.814,0,0,1,3.292.008L171-143.4l-.039,1.949c-.055,3.092-.189,6.083-.308,8.6l-.5,10.837Zm-3.087-17.275-1.521-.189-.245-1.514c-1.409-8.723-.567-21.526,6.443-28.916l3.567-3.771-.032,5.19c-.039,6.144-.2,14.758-.512,27.118l-.039,1.672-1.637.3a20.369,20.369,0,0,1-3.411.261,21,21,0,0,1-2.6-.142" transform="translate(-69.697 196.161)" fill="#2c2c2c"></path><path id="Path_5" data-name="Path 5" d="M133.869-153.332l-2.261-.245c-4.016-.426-7.614-3.108-10.427-7.738a35.184,35.184,0,0,1-4.505-13.773c-.992-8.66,1.371-15.082,6.143-16.738l.174-.047c2.261-.575,8.214.995,10.7,2.035l1.268.529-.008,1.38c-.008,1.475-.134,3.984-.292,7.163-.3,6.049-.747,15.2-.786,25.161Z" transform="translate(-64.139 198.573)" fill="#c7a2d7"></path><path id="Path_6" data-name="Path 6" d="M127.046-128.348c-.308,0-.624-.008-.93-.024a14.665,14.665,0,0,1-9.332-3.984,18.273,18.273,0,0,1-5.307-10.3,19.354,19.354,0,0,1,1.6-11.682,16.31,16.31,0,0,1,8.025-7.723c3.946-1.775,8.726-2.208,14.215-1.285l1.661.276.047,1.688A185.058,185.058,0,0,0,139.535-134l.261,1.421-1.252.725a23.212,23.212,0,0,1-11.505,3.5" transform="translate(-67.184 214.89)" fill="#d3f69c"></path><path id="Path_7" data-name="Path 7" d="M152.267-155.612c-.047-9.963-.488-19.112-.786-25.161-.158-3.171-.276-5.68-.292-7.163l-.008-1.372,1.268-.529c2.489-1.041,8.45-2.61,10.7-2.035l.174.047c4.78,1.664,7.134,8.079,6.143,16.738a35.313,35.313,0,0,1-4.505,13.773c-2.812,4.63-6.419,7.311-10.427,7.738l-2.261.237Z" transform="translate(-44.029 198.573)" fill="#fafa8a"></path><path id="Path_8" data-name="Path 8" d="M151.3-131.853l-1.252-.725L150.3-134a187.214,187.214,0,0,0,2.512-27.386l.047-1.688,1.669-.276c5.489-.914,10.269-.482,14.215,1.285a16.244,16.244,0,0,1,8.025,7.723,19.3,19.3,0,0,1,1.6,11.682,18.272,18.272,0,0,1-5.307,10.3,14.645,14.645,0,0,1-9.325,3.984c-.308.016-.614.024-.93.024a23.108,23.108,0,0,1-11.505-3.5" transform="translate(-44.687 214.892)" fill="#bde4e5"></path></g></svg>